<?xml version="1.0" encoding="UTF-8"?>
<svg xmlns="http://www.w3.org/2000/svg" viewBox="0 0 1095 1095" width="1095" height="1095">
<path d="M209.69 135.51C229.04 133.74 249.07 135.29 268.5 135.2C313.5 135 358.5 135.42 403.5 135.24C521.49 134.77 639.51 134.8 757.5 135.16C788.83 135.25 820.17 135.1 851.5 135.21C865.7 135.25 880.35 134.1 894.43 136.28C914.96 139.47 933.31 151.41 945.42 168.12C959.82 188 959.98 210.97 959.92 234.5C959.87 254.16 959.86 273.84 959.95 293.5C960.44 393.83 959.87 494.17 959.94 594.5C960 673.17 959.98 751.83 959.95 830.5C959.93 871.45 965.93 908.9 933.02 939.52C910.1 960.84 885.7 959.89 856.5 959.99C826.17 960.1 795.83 959.98 765.5 960.01C618.84 960.18 472.15 960.79 325.5 960C299.84 959.86 274.16 959.9 248.5 960C233.31 960.06 217.53 961.19 202.5 958.96C182.46 955.98 163.68 943.96 151.6 927.87C135.52 906.45 135.03 884.21 135.17 858.5C135.25 844.5 135.22 830.5 135.19 816.5C135.05 729.51 135.63 642.49 135.17 555.5C134.64 453.51 134.88 351.49 135.2 249.5C135.25 233.41 133.74 216.51 136.34 200.59C142.5 162.71 172.66 138.88 209.69 135.51ZM465.5 376.09C460.53 380.24 454.03 394.59 450.37 400.86C439.69 419.19 428.92 437.48 418.4 455.91C384.32 515.61 349.64 575.04 314.79 634.29C302.67 654.89 290.82 675.66 278.88 696.36C275.81 701.67 265.02 717.73 264.38 722.58C279.09 722.58 293.79 722.58 308.5 722.58C360.83 633.4 413.17 544.22 465.5 455.04C523.17 551.67 580.83 648.31 638.5 744.94C706.93 635.05 775.37 525.16 843.8 415.27C827.57 415.27 811.35 415.27 795.12 415.27C742.91 499.21 690.71 583.15 638.5 667.09C580.83 570.09 523.17 473.09 465.5 376.09ZM418.5 573.79C411.16 586.48 403.82 599.16 396.49 611.85C442.36 611.85 488.23 611.85 534.1 611.85C526.57 599.16 519.03 586.48 511.5 573.79C480.5 573.79 449.5 573.79 418.5 573.79ZM963.85 949.01C962.96 950 962.08 950.99 961.2 951.98C961.13 951.49 961.07 950.99 961 950.5C961.95 950 962.9 949.51 963.85 949.01ZM951.98 961.19C951.28 961.83 950.58 962.46 949.88 963.09C949.59 962.89 949.29 962.7 949 962.5C949.5 962 950 961.5 950.5 961C950.99 961.06 951.49 961.13 951.98 961.19ZM947 965.01C946.5 965.01 946 965 945.5 965C945.3 965.65 945.1 966.29 944.9 966.94C944.77 965.96 944.63 964.98 944.5 964C945.33 964.34 946.17 964.68 947 965.01ZM943.04 967.99C942.52 967.99 942.01 968 941.5 968C941.21 965.64 940.85 965.76 943 965.5C943.01 966.33 943.02 967.16 943.04 967.99Z" fill="#0e0e10" fill-rule="evenodd" stroke="#0e0e10" stroke-width="0.25" stroke-linejoin="round"/>
<path d="M198 109.7C271 109.69 344 109.68 417 109.68C417.33 109.68 417.67 109.68 418 109.68C447.33 109.68 476.67 109.69 506 109.69C508 109.69 510 109.69 512 109.69C542.33 109.69 572.67 109.69 603 109.69C603.33 109.69 603.67 109.69 604 109.69C687 109.69 770 109.68 853 109.68C854 109.68 855 109.69 856 109.69C869.67 109.69 883.33 109.68 897 109.68C908.45 110.37 918.77 111.58 929.53 115.89C957.56 127.13 978.26 152.99 983.91 182.54C985.97 193.32 985.23 204.56 985.23 215.5C985.21 233.17 985.22 250.83 985.22 268.5C985.24 431.5 985.24 594.5 985.22 757.5C985.22 792.5 985.18 827.5 985.22 862.5C985.26 894.66 986.79 923.34 963.85 949.01C962.9 949.51 961.95 950 961 950.5C961.07 950.99 961.13 951.49 961.2 951.98C958.12 955.05 955.05 958.12 951.98 961.19C951.49 961.13 950.99 961.06 950.5 961C950 961.5 949.5 962 949 962.5C949.29 962.7 949.59 962.89 949.88 963.09C948.92 963.73 947.96 964.37 947 965.01C946.17 964.68 945.33 964.34 944.5 964C944.63 964.98 944.77 965.96 944.9 966.94C944.28 967.29 943.66 967.64 943.04 967.99C943.02 967.16 943.01 966.33 943 965.5C940.85 965.76 941.21 965.64 941.5 968C942.01 968 942.52 967.99 943.04 967.99C938.61 974.06 924.7 978.85 917.56 981.08C893.31 988.68 867.92 983.77 843 985.71C842 985.7 841 985.7 840 985.7C832 985.7 824 985.7 816 985.7C815 985.7 814 985.7 813 985.7C812.33 985.7 811.67 985.7 811 985.7C810 985.69 809 985.69 808 985.69C799.33 985.69 790.67 985.69 782 985.7C780.67 985.7 779.33 985.7 778 985.7C773.67 985.7 769.33 985.7 765 985.7C764 985.7 763 985.7 762 985.7C753.33 985.69 744.67 985.69 736 985.69C735 985.69 734 985.69 733 985.69C732.67 985.69 732.33 985.69 732 985.69C731 985.69 730 985.69 729 985.69C717.33 985.69 705.67 985.69 694 985.69C692.67 985.69 691.33 985.69 690 985.7C674.33 985.7 658.67 985.7 643 985.7C641 985.7 639 985.7 637 985.7C619.67 985.7 602.33 985.7 585 985.7C584 985.7 583 985.7 582 985.7C545.33 985.7 508.67 985.7 472 985.7C470.67 985.7 469.33 985.7 468 985.7C436.33 985.7 404.67 985.7 373 985.7C372 985.7 371 985.7 370 985.7C357.33 985.7 344.67 985.7 332 985.7C330.67 985.7 329.33 985.7 328 985.7C317.88 985.13 307.64 985.63 297.5 985.58C275.67 985.47 253.83 985.72 232 985.55C198.76 985.28 176.88 986.64 148.64 965.92C129.07 951.56 114.93 928.4 111.1 904.47C108.94 891.04 109.84 877.08 109.84 863.5C109.86 845.83 109.84 828.17 109.84 810.5C109.85 679.83 109.77 549.17 109.84 418.5C109.85 395.83 109.85 373.17 109.84 350.5C109.82 314.17 109.85 277.83 109.84 241.5C109.84 220.59 107.5 198.14 112.28 177.72C119.93 145.03 147.7 117.86 180.61 111.2C186.39 110.02 192.11 109.98 198 109.7ZM209.69 135.51C172.66 138.88 142.5 162.71 136.34 200.59C133.74 216.51 135.25 233.41 135.2 249.5C134.88 351.49 134.64 453.51 135.17 555.5C135.63 642.49 135.05 729.51 135.19 816.5C135.22 830.5 135.25 844.5 135.17 858.5C135.03 884.21 135.52 906.45 151.6 927.87C163.68 943.96 182.46 955.98 202.5 958.96C217.53 961.19 233.31 960.06 248.5 960C274.16 959.9 299.84 959.86 325.5 960C472.15 960.79 618.84 960.18 765.5 960.01C795.83 959.98 826.17 960.1 856.5 959.99C885.7 959.89 910.1 960.84 933.02 939.52C965.93 908.9 959.93 871.45 959.95 830.5C959.98 751.83 960 673.17 959.94 594.5C959.87 494.17 960.44 393.83 959.95 293.5C959.86 273.84 959.87 254.16 959.92 234.5C959.98 210.97 959.82 188 945.42 168.12C933.31 151.41 914.96 139.47 894.43 136.28C880.35 134.1 865.7 135.25 851.5 135.21C820.17 135.1 788.83 135.25 757.5 135.16C639.51 134.8 521.49 134.77 403.5 135.24C358.5 135.42 313.5 135 268.5 135.2C249.07 135.29 229.04 133.74 209.69 135.51ZM947 965.01C946.3 965.65 945.6 966.29 944.9 966.94C945.1 966.29 945.3 965.65 945.5 965C946 965 946.5 965.01 947 965.01Z" fill="#292a2c" fill-rule="evenodd" stroke="#292a2c" stroke-width="0.25" stroke-linejoin="round"/>
<path d="M465.5 376.09C523.17 473.09 580.83 570.09 638.5 667.09C690.71 583.15 742.91 499.21 795.12 415.27C811.35 415.27 827.57 415.27 843.8 415.27C775.37 525.16 706.93 635.05 638.5 744.94C580.83 648.31 523.17 551.67 465.5 455.04C413.17 544.22 360.83 633.4 308.5 722.58C293.79 722.58 279.09 722.58 264.38 722.58C265.02 717.73 275.81 701.67 278.88 696.36C290.82 675.66 302.67 654.89 314.79 634.29C349.64 575.04 384.32 515.61 418.4 455.91C428.92 437.48 439.69 419.19 450.37 400.86C454.03 394.59 460.53 380.24 465.5 376.09ZM418.5 573.79C449.5 573.79 480.5 573.79 511.5 573.79C519.03 586.48 526.57 599.16 534.1 611.85C488.23 611.85 442.36 611.85 396.49 611.85C403.82 599.16 411.16 586.48 418.5 573.79Z" fill="#67a1e7" fill-rule="evenodd" stroke="#67a1e7" stroke-width="0.25" stroke-linejoin="round"/>
<path d="M417 109.68C344 109.68 271 109.69 198 109.7C271 109.69 344 109.68 417 109.68ZM506 109.69C476.67 109.69 447.33 109.68 418 109.68C447.33 109.68 476.67 109.69 506 109.69ZM603 109.69C572.67 109.69 542.33 109.69 512 109.69C542.33 109.69 572.67 109.69 603 109.69ZM853 109.68C770 109.68 687 109.69 604 109.69C687 109.69 770 109.68 853 109.68ZM897 109.68C883.33 109.68 869.67 109.69 856 109.69C869.67 109.69 883.33 109.68 897 109.68ZM332 985.7C330.67 985.7 329.33 985.7 328 985.7C329.33 985.7 330.67 985.7 332 985.7ZM373 985.7C372 985.7 371 985.7 370 985.7C371 985.7 372 985.7 373 985.7ZM472 985.7C470.67 985.7 469.33 985.7 468 985.7C469.33 985.7 470.67 985.7 472 985.7ZM585 985.7C584 985.7 583 985.7 582 985.7C583 985.7 584 985.7 585 985.7ZM643 985.7C641 985.7 639 985.7 637 985.7C639 985.7 641 985.7 643 985.7ZM694 985.69C692.67 985.69 691.33 985.69 690 985.7C691.33 985.69 692.67 985.69 694 985.69ZM732 985.69C731 985.69 730 985.69 729 985.69C730 985.69 731 985.69 732 985.69ZM736 985.69C735 985.69 734 985.69 733 985.69C734 985.69 735 985.69 736 985.69ZM765 985.7C764 985.7 763 985.7 762 985.7C763 985.7 764 985.7 765 985.7ZM782 985.7C780.67 985.7 779.33 985.7 778 985.7C779.33 985.7 780.67 985.7 782 985.7ZM811 985.7C810 985.69 809 985.69 808 985.69C809 985.69 810 985.69 811 985.7ZM816 985.7C815 985.7 814 985.7 813 985.7C814 985.7 815 985.7 816 985.7ZM843 985.71C842 985.7 841 985.7 840 985.7C841 985.7 842 985.7 843 985.71Z" fill="#ffffff" fill-rule="evenodd" stroke="#ffffff" stroke-width="0.25" stroke-linejoin="round"/>
</svg>